<svg transform="scale(1)" version="1.1" id="Layer_1" xmlns="http://www.w3.org/2000/svg" xmlns:xlink="http://www.w3.org/1999/xlink" x="0px" y="0px" viewBox="0 0 500 500" xml:space="preserve" class="show_show__wrapper__graphic__5Waiy "><title>React</title><style type="text/css">
	.st0{fill:#FFFFFF;}
	.st1{fill:#231F20;}
	.st2{fill:#D1D3D4;}
	.st3{fill:#0084ff;}
</style><g id="laptop"><path class="st0" d="M145.1,223.2h203.9c7.2,0,13,5.8,13,13v108.6c0,7.2-5.8,13-13,13H145.1c-7.2,0-13-5.8-13-13V236.1
		C132.1,229,137.9,223.2,145.1,223.2z"></path><path class="st1" d="M349,358.5H145.1c-7.5,0-13.7-6.1-13.7-13.7V236.1c0-7.5,6.1-13.7,13.7-13.7H349c7.5,0,13.7,6.1,13.7,13.7
		v108.6C362.7,352.3,356.5,358.5,349,358.5z M145.1,223.9c-6.8,0-12.3,5.5-12.3,12.3v108.6c0,6.8,5.5,12.3,12.3,12.3H349
		c6.8,0,12.3-5.5,12.3-12.3V236.1c0-6.8-5.5-12.3-12.3-12.3H145.1z"></path><path class="st0" d="M211.2,309.7h71.6c2.5,0,4.5,2,4.5,4.5v29.5c0,2.5-2,4.5-4.5,4.5h-71.6c-2.5,0-4.5-2-4.5-4.5v-29.5
		C206.7,311.7,208.7,309.7,211.2,309.7z"></path><path class="st2" d="M282.8,348.9h-71.6c-2.9,0-5.2-2.3-5.2-5.2v-29.5c0-2.9,2.3-5.2,5.2-5.2c0,0,0,0,0,0h71.6
		c2.9,0,5.2,2.3,5.2,5.2v0v29.5C288,346.6,285.7,348.9,282.8,348.9z M211.2,310.4c-2.1,0-3.8,1.7-3.8,3.8v29.5
		c0,2.1,1.7,3.8,3.8,3.8h71.6c2.1,0,3.8-1.7,3.8-3.8v-29.5c0-2.1-1.7-3.8-3.8-3.8H211.2z"></path><path class="st0" d="M152.6,232.7h188.7c4,0,7.2,3.2,7.2,7.2v52c0,4-3.2,7.2-7.2,7.2H152.6c-4,0-7.2-3.2-7.2-7.2v-52
		C145.4,235.9,148.7,232.7,152.6,232.7z"></path><path class="st2" d="M341.4,299.8H152.6c-4.4,0-7.9-3.5-7.9-7.9v-52c0-4.4,3.5-7.9,7.9-7.9h188.7c4.4,0,7.9,3.5,7.9,7.9v52
		C349.3,296.3,345.8,299.8,341.4,299.8z M152.6,233.4c-3.6,0-6.5,2.9-6.5,6.5v52c0,3.6,2.9,6.5,6.5,6.5h188.7c3.6,0,6.5-2.9,6.5-6.5
		v-52c0-3.6-2.9-6.5-6.5-6.5H152.6z"></path><path class="st0" d="M145.1,88.6h203.9c7.2,0,13,5.8,13,13v108.6c0,7.2-5.8,13-13,13H145.1c-7.2,0-13-5.8-13-13V101.6
		C132.1,94.4,137.9,88.6,145.1,88.6z"></path><path class="st1" d="M349,223.9H145.1c-7.5,0-13.7-6.1-13.7-13.7V101.6c0-7.5,6.1-13.7,13.7-13.7H349c7.5,0,13.7,6.1,13.7,13.7
		v108.7C362.7,217.8,356.5,223.9,349,223.9z M145.1,89.3c-6.8,0-12.3,5.5-12.3,12.3v108.7c0,6.8,5.5,12.3,12.3,12.3H349
		c6.8,0,12.3-5.5,12.3-12.3V101.6c0-6.8-5.5-12.3-12.3-12.3H145.1z"></path></g><g id="screens"><rect class="st0" x="380.8" y="108.6" width="87.8" height="129.4"></rect><path class="st2" d="M468.6,238.8h-87.8c-0.4,0-0.7-0.3-0.7-0.7c0,0,0,0,0,0V108.6c0-0.4,0.3-0.7,0.7-0.7l0,0h87.8
		c0.4,0,0.7,0.3,0.7,0.7v129.4C469.3,238.4,469,238.8,468.6,238.8z M381.5,237.4h86.4v-128h-86.4L381.5,237.4z"></path><path class="st2" d="M468.6,117.8h-87.8c-0.4,0-0.7-0.3-0.7-0.7c0-0.4,0.3-0.7,0.7-0.7h87.8c0.4,0,0.7,0.3,0.7,0.7
		C469.3,117.5,469,117.8,468.6,117.8z"></path><path class="st2" d="M420.4,141.5h-27.8c-0.4,0-0.7-0.3-0.7-0.7c0,0,0,0,0,0v-15.6c0-0.4,0.3-0.7,0.7-0.7l0,0h27.8
		c0.4,0,0.7,0.3,0.7,0.7v0v15.6C421.1,141.2,420.7,141.5,420.4,141.5L420.4,141.5z M393.2,140.1h26.4V126h-26.4V140.1z"></path><path class="st2" d="M459.5,177.9h-27.8c-0.4,0-0.7-0.3-0.7-0.7c0,0,0,0,0,0v-15.6c0-0.4,0.3-0.7,0.7-0.7l0,0h27.8
		c0.4,0,0.7,0.3,0.7,0.7c0,0,0,0,0,0v15.6C460.2,177.5,459.9,177.9,459.5,177.9L459.5,177.9z M432.4,176.5h26.4v-14.2h-26.4V176.5z"></path><path class="st2" d="M420.4,185.6h-27.8c-0.4,0-0.7-0.3-0.7-0.7c0,0,0,0,0,0v-15.6c0-0.4,0.3-0.7,0.7-0.7l0,0h27.8
		c0.4,0,0.7,0.3,0.7,0.7c0,0,0,0,0,0v15.6C421.1,185.3,420.7,185.6,420.4,185.6L420.4,185.6z M393.2,184.2h26.4v-14.2h-26.4V184.2z"></path><path class="st2" d="M441.2,226.6h-27.8c-0.4,0-0.7-0.3-0.7-0.7v-15.6c0-0.4,0.3-0.7,0.7-0.7h27.8c0.4,0,0.7,0.3,0.7,0.7
		c0,0,0,0,0,0v15.6C442,226.3,441.6,226.6,441.2,226.6L441.2,226.6z M414.1,225.2h26.4V211h-26.4V225.2z"></path><path class="st2" d="M445.6,162.3c-0.4,0-0.7-0.3-0.7-0.7c0,0,0,0,0,0v-8h-38.4c-0.4,0-0.7-0.3-0.7-0.7c0,0,0,0,0,0v-12
		c0-0.4,0.3-0.7,0.7-0.7c0.4,0,0.7,0.3,0.7,0.7c0,0,0,0,0,0v11.3h38.4c0.4,0,0.7,0.3,0.7,0.7c0,0,0,0,0,0v8.7
		C446.2,162,445.9,162.3,445.6,162.3z"></path><path class="st2" d="M406.4,170.1c-0.4,0-0.7-0.3-0.7-0.7c0,0,0,0,0,0v-16.5c0-0.4,0.3-0.7,0.7-0.7c0.4,0,0.7,0.3,0.7,0.7
		c0,0,0,0,0,0v16.5C407.1,169.7,406.8,170.1,406.4,170.1z"></path><path class="st2" d="M428.5,210.3c-0.4,0-0.7-0.3-0.7-0.7c0,0,0,0,0,0v-10.1h-21.4c-0.4,0-0.7-0.3-0.7-0.7c0,0,0,0,0,0v-13.8
		c0-0.4,0.3-0.7,0.7-0.7c0.4,0,0.7,0.3,0.7,0.7c0,0,0,0,0,0V198h21.4c0.4,0,0.7,0.3,0.7,0.7c0,0,0,0,0,0v10.9
		C429.2,209.9,428.9,210.3,428.5,210.3C428.5,210.3,428.5,210.3,428.5,210.3z"></path><rect class="st0" x="53.5" y="106.2" width="56.8" height="50.7"></rect><path class="st2" d="M110.3,157.6H53.5c-0.4,0-0.7-0.3-0.7-0.7v-50.7c0-0.4,0.3-0.7,0.7-0.7h56.8c0.4,0,0.7,0.3,0.7,0.7v50.7
		C111,157.2,110.7,157.6,110.3,157.6z M54.2,156.2h55.4v-49.3H54.2L54.2,156.2z"></path><path class="st2" d="M71.9,141.8c-0.2,0-0.3-0.1-0.5-0.2l-9.9-8.8c-0.3-0.3-0.3-0.7,0-1l9.9-10.4c0.3-0.3,0.7-0.3,1,0s0.3,0.7,0,1
		l-9.4,9.9l9.4,8.3c0.3,0.3,0.3,0.7,0.1,1C72.3,141.7,72.1,141.8,71.9,141.8z"></path><path class="st2" d="M90,141.8c-0.4,0-0.7-0.3-0.7-0.7c0-0.2,0.1-0.4,0.2-0.5l9.4-8.3l-9.4-9.9c-0.3-0.3-0.3-0.7,0-1s0.7-0.3,1,0
		l0,0l9.9,10.4c0.1,0.1,0.2,0.3,0.2,0.5c0,0.2-0.1,0.4-0.2,0.5l-9.9,8.8C90.3,141.7,90.2,141.8,90,141.8z"></path><path class="st2" d="M74.5,144.5c-0.4,0-0.7-0.3-0.7-0.7c0-0.1,0-0.2,0.1-0.3l12.4-23.7c0.2-0.3,0.6-0.5,0.9-0.3s0.5,0.6,0.3,0.9
		l0,0l-12.4,23.7C75,144.4,74.8,144.5,74.5,144.5z"></path><path class="st2" d="M110.3,113.7H53.5c-0.4,0-0.7-0.3-0.7-0.7c0-0.4,0.3-0.7,0.7-0.7h56.8c0.4,0,0.7,0.3,0.7,0.7
		C111,113.4,110.7,113.7,110.3,113.7z"></path><rect class="st0" x="31.4" y="187.2" width="87.5" height="91.1"></rect><path class="st2" d="M118.9,278.9H31.4c-0.4,0-0.7-0.3-0.7-0.7l0,0v-91.1c0-0.4,0.3-0.7,0.7-0.7h87.5c0.4,0,0.7,0.3,0.7,0.7v91.1
		C119.6,278.6,119.3,278.9,118.9,278.9z M32.1,277.5h86.1v-89.7H32.1L32.1,277.5z"></path><path class="st2" d="M118.9,196.9H31.4c-0.4,0-0.7-0.3-0.7-0.7s0.3-0.7,0.7-0.7c0,0,0,0,0,0h87.5c0.4,0,0.7,0.3,0.7,0.7
		C119.6,196.6,119.3,196.9,118.9,196.9z"></path><path class="st2" d="M49.8,204.2H39.1c-0.4,0-0.7-0.3-0.7-0.7c0-0.4,0.3-0.7,0.7-0.7c0,0,0,0,0,0h10.7c0.4,0,0.7,0.3,0.7,0.7
		C50.5,203.8,50.2,204.2,49.8,204.2C49.8,204.2,49.8,204.2,49.8,204.2z"></path><path class="st2" d="M76.7,204.2H55.4c-0.4,0-0.7-0.3-0.7-0.7c0-0.4,0.3-0.7,0.7-0.7h21.3c0.4,0,0.7,0.3,0.7,0.7
		C77.4,203.8,77.1,204.2,76.7,204.2z"></path><path class="st2" d="M83.2,212.3H61.8c-0.4,0-0.7-0.3-0.7-0.7c0-0.4,0.3-0.7,0.7-0.7h21.3c0.4,0,0.7,0.3,0.7,0.7
		C83.9,211.9,83.5,212.3,83.2,212.3C83.2,212.3,83.2,212.3,83.2,212.3z"></path><path class="st2" d="M52.3,212.3H41.6c-0.4,0-0.7-0.3-0.7-0.7c0-0.4,0.3-0.7,0.7-0.7c0,0,0,0,0,0h10.7c0.4,0,0.7,0.3,0.7,0.7
		C53,211.9,52.7,212.3,52.3,212.3C52.3,212.3,52.3,212.3,52.3,212.3z"></path><path class="st2" d="M52.7,220.4h-8.6c-0.4,0-0.7-0.3-0.7-0.7c0-0.4,0.3-0.7,0.7-0.7c0,0,0,0,0,0h8.6c0.4,0,0.7,0.3,0.7,0.7
		C53.4,220.1,53.1,220.4,52.7,220.4C52.7,220.4,52.7,220.4,52.7,220.4z"></path><path class="st2" d="M87,220.4H60.3c-0.4,0-0.7-0.3-0.7-0.7c0-0.4,0.3-0.7,0.7-0.7c0,0,0,0,0,0H87c0.4,0,0.7,0.3,0.7,0.7
		C87.7,220.1,87.4,220.4,87,220.4C87,220.4,87,220.4,87,220.4z"></path><path class="st2" d="M57.3,228.5H46.6c-0.4,0-0.7-0.3-0.7-0.7c0-0.4,0.3-0.7,0.7-0.7h10.7c0.4,0,0.7,0.3,0.7,0.7
		C58,228.2,57.7,228.5,57.3,228.5z"></path><path class="st2" d="M92.5,228.5H60.8c-0.4,0-0.7-0.3-0.7-0.7c0-0.4,0.3-0.7,0.7-0.7h31.7c0.4,0,0.7,0.3,0.7,0.7
		C93.2,228.2,92.9,228.5,92.5,228.5z"></path><path class="st2" d="M54.5,236.6H43.8c-0.4,0-0.7-0.3-0.7-0.7c0-0.4,0.3-0.7,0.7-0.7c0,0,0,0,0,0h10.7c0.4,0,0.7,0.3,0.7,0.7
		C55.2,236.3,54.9,236.6,54.5,236.6C54.5,236.6,54.5,236.6,54.5,236.6z"></path><path class="st2" d="M75.8,236.6H58.6c-0.4,0-0.7-0.3-0.7-0.7c0-0.4,0.3-0.7,0.7-0.7c0,0,0,0,0,0h17.2c0.4,0,0.7,0.3,0.7,0.7
		C76.5,236.3,76.2,236.6,75.8,236.6C75.8,236.6,75.8,236.6,75.8,236.6z"></path><path class="st2" d="M99.6,236.6H82.3c-0.4,0-0.7-0.3-0.7-0.7c0-0.4,0.3-0.7,0.7-0.7h17.2c0.4,0,0.7,0.3,0.7,0.7
		C100.3,236.3,100,236.6,99.6,236.6C99.6,236.6,99.6,236.6,99.6,236.6z"></path><path class="st2" d="M47.5,244.7h-3.7c-0.4,0-0.7-0.3-0.7-0.7c0-0.4,0.3-0.7,0.7-0.7c0,0,0,0,0,0h3.7c0.4,0,0.7,0.3,0.7,0.7
		C48.2,244.4,47.9,244.7,47.5,244.7C47.5,244.7,47.5,244.7,47.5,244.7z"></path><path class="st2" d="M75.8,244.7h-22c-0.4,0-0.7-0.3-0.7-0.7c0-0.4,0.3-0.7,0.7-0.7c0,0,0,0,0,0h22c0.4,0,0.7,0.3,0.7,0.7
		C76.5,244.4,76.2,244.7,75.8,244.7C75.8,244.7,75.8,244.7,75.8,244.7z"></path><path class="st2" d="M84.4,244.7h-6.1c-0.4,0-0.7-0.3-0.7-0.7c0-0.4,0.3-0.7,0.7-0.7c0,0,0,0,0,0h6.1c0.4,0,0.7,0.3,0.7,0.7
		C85.2,244.4,84.8,244.7,84.4,244.7C84.5,244.7,84.5,244.7,84.4,244.7z"></path><path class="st2" d="M49.6,252.8h-5.8c-0.4,0-0.7-0.3-0.7-0.7c0-0.4,0.3-0.7,0.7-0.7h5.8c0.4,0,0.7,0.3,0.7,0.7
		C50.3,252.5,50,252.8,49.6,252.8C49.6,252.8,49.6,252.8,49.6,252.8z"></path><path class="st2" d="M81.2,252.8H55c-0.4,0-0.7-0.3-0.7-0.7c0-0.4,0.3-0.7,0.7-0.7h26.2c0.4,0,0.7,0.3,0.7,0.7
		C81.9,252.5,81.6,252.8,81.2,252.8z"></path><path class="st2" d="M94.4,252.8H83.8c-0.4,0-0.7-0.3-0.7-0.7c0-0.4,0.3-0.7,0.7-0.7h10.7c0.4,0,0.7,0.3,0.7,0.7
		C95.1,252.5,94.8,252.8,94.4,252.8z"></path><path class="st2" d="M46.9,260.9h-5.7c-0.4,0-0.7-0.3-0.7-0.7c0-0.4,0.3-0.7,0.7-0.7h5.7c0.4,0,0.7,0.3,0.7,0.7
		C47.6,260.6,47.3,260.9,46.9,260.9C46.9,260.9,46.9,260.9,46.9,260.9z"></path><path class="st2" d="M78.3,260.9H53.5c-0.4,0-0.7-0.3-0.7-0.7c0-0.4,0.3-0.7,0.7-0.7h24.8c0.4,0,0.7,0.3,0.7,0.7
		C79,260.6,78.7,260.9,78.3,260.9C78.3,260.9,78.3,260.9,78.3,260.9z"></path><path class="st2" d="M52,269H41.3c-0.4,0-0.7-0.3-0.7-0.7c0-0.4,0.3-0.7,0.7-0.7H52c0.4,0,0.7,0.3,0.7,0.7
		C52.7,268.7,52.4,269,52,269C52,269,52,269,52,269z"></path><path class="st2" d="M111.2,228.5H96.8c-0.4,0-0.7-0.3-0.7-0.7c0-0.4,0.3-0.7,0.7-0.7h14.4c0.4,0,0.7,0.3,0.7,0.7
		C111.9,228.2,111.6,228.5,111.2,228.5z"></path><path class="st2" d="M89.6,204.2c-7.2,0-7.4,0-7.5-0.1c-0.4-0.1-0.6-0.5-0.5-0.8s0.5-0.6,0.8-0.5c0.9,0.1,14.8,0,24.1,0l0,0
		c0.4,0,0.7,0.3,0.7,0.7c0,0.4-0.3,0.7-0.7,0.7C98.6,204.2,93.2,204.2,89.6,204.2z"></path><path class="st2" d="M92,260.9H81.2c-0.4,0-0.7-0.3-0.7-0.7c0-0.4,0.3-0.7,0.7-0.7H92c0.4,0,0.7,0.3,0.7,0.7
		C92.7,260.6,92.4,260.9,92,260.9C92,260.9,92,260.9,92,260.9z"></path><path class="st2" d="M67.2,269h-8c-0.4,0-0.7-0.3-0.7-0.7c0-0.4,0.3-0.7,0.7-0.7h8c0.4,0,0.7,0.3,0.7,0.7
		C67.9,268.7,67.6,269,67.2,269C67.2,269,67.2,269,67.2,269z"></path><path class="st2" d="M89.1,269H70.2c-0.4,0-0.7-0.3-0.7-0.7c0-0.4,0.3-0.7,0.7-0.7h18.9c0.4,0,0.7,0.3,0.7,0.7
		C89.8,268.7,89.5,269,89.1,269C89.1,269,89.1,269,89.1,269z"></path></g><g id="coffee_cup"><circle class="st0" cx="421" cy="289.4" r="35.3"></circle><path class="st1" d="M421,325.4c-19.9,0-36-16.1-36-36s16.1-36,36-36s36,16.1,36,36l0,0C457,309.3,440.9,325.4,421,325.4z
		 M421,254.8c-19.1,0-34.6,15.5-34.6,34.6c0,19.1,15.5,34.6,34.6,34.6c19.1,0,34.6-15.5,34.6-34.6c0,0,0,0,0,0
		C455.6,270.3,440.2,254.8,421,254.8z"></path><path class="st0" d="M436.6,315.2L436.6,315.2c-1.7,1-3.8,0.4-4.8-1.3l-4.3-7.3c-1-1.7-0.4-3.8,1.3-4.8l0,0c1.7-1,3.8-0.4,4.8,1.3
		l4.3,7.3C438.8,312.1,438.2,314.2,436.6,315.2z"></path><path class="st1" d="M434.8,316.4c-0.4,0-0.7,0-1.1-0.1c-1.1-0.3-2-1-2.5-1.9L427,307c-1.2-2-0.5-4.5,1.5-5.7c0,0,0,0,0,0
		c2-1.2,4.6-0.5,5.7,1.5l4.3,7.3c1.2,2,0.5,4.5-1.5,5.7C436.3,316.2,435.6,316.4,434.8,316.4L434.8,316.4z M430.6,302.1
		c-0.5,0-1,0.1-1.4,0.4c-1.3,0.8-1.8,2.5-1,3.8l4.2,7.3c0.8,1.3,2.6,1.6,3.8,0.8c1.2-0.8,1.6-2.3,1-3.6l-4.2-7.3
		c-0.4-0.6-1-1.1-1.7-1.3C431.1,302.1,430.8,302.1,430.6,302.1L430.6,302.1z"></path><circle class="st0" cx="421" cy="288.5" r="22.2"></circle><path class="st1" d="M421.1,311.3c-2,0-4-0.3-5.9-0.8c-5.9-1.5-10.9-5.4-13.9-10.6l0,0c-6.3-10.9-2.6-24.9,8.3-31.2
		s24.9-2.6,31.2,8.3s2.6,24.9-8.3,31.2C429,310.3,425.1,311.3,421.1,311.3z M421,267c-11.9,0-21.4,9.6-21.4,21.5
		c0,3.8,1,7.5,2.9,10.7l0,0c5.9,10.3,19.1,13.7,29.3,7.8c10.3-5.9,13.7-19.1,7.8-29.3C435.7,271.1,428.7,267,421,267z"></path><circle class="st1" cx="421" cy="288.5" r="18.2"></circle></g><g id="laptop_screen"><rect class="st3" x="143.5" y="100" width="208.9" height="112.4"></rect><path class="st1" d="M352.4,213.1H143.5c-0.4,0-0.7-0.3-0.7-0.7V100c0-0.4,0.3-0.7,0.7-0.7h208.9c0.4,0,0.7,0.3,0.7,0.7v0v112.4
		C353.1,212.8,352.8,213.1,352.4,213.1L352.4,213.1z M144.2,211.7h207.5v-111H144.2L144.2,211.7z"></path><path class="st1" d="M352.4,114.3H143.5c-0.4,0-0.7-0.3-0.7-0.7c0-0.4,0.3-0.7,0.7-0.7h208.9c0.4,0,0.7,0.3,0.7,0.7
		C353.1,114,352.8,114.3,352.4,114.3z"></path><circle class="st1" cx="151.5" cy="106.6" r="2.3"></circle><path class="st1" d="M151.5,109.6c-1.7,0-3-1.3-3-3s1.3-3,3-3s3,1.3,3,3S153.2,109.6,151.5,109.6z M151.5,105
		c-0.9,0-1.6,0.7-1.6,1.6s0.7,1.6,1.6,1.6c0.9,0,1.6-0.7,1.6-1.6c0,0,0,0,0,0C153.1,105.7,152.4,105,151.5,105L151.5,105z"></path><circle class="st1" cx="162" cy="106.6" r="2.3"></circle><path class="st1" d="M162,109.6c-1.7,0-3-1.3-3-3s1.3-3,3-3s3,1.3,3,3S163.7,109.6,162,109.6z M162,105c-0.9,0-1.6,0.7-1.6,1.6
		s0.7,1.6,1.6,1.6s1.6-0.7,1.6-1.6C163.6,105.7,162.9,105,162,105L162,105z"></path><circle class="st1" cx="172.5" cy="106.6" r="2.3"></circle><path class="st1" d="M172.5,109.6c-1.7,0-3-1.3-3-3s1.3-3,3-3s3,1.3,3,3S174.1,109.6,172.5,109.6z M172.5,105
		c-0.9,0-1.6,0.7-1.6,1.6s0.7,1.6,1.6,1.6c0.9,0,1.6-0.7,1.6-1.6c0,0,0,0,0,0C174.1,105.7,173.3,105,172.5,105L172.5,105z"></path><path class="st1" d="M159.7,213.1c-0.4,0-0.7-0.3-0.7-0.7v-98.8c0-0.4,0.3-0.7,0.7-0.7c0.4,0,0.7,0.3,0.7,0.7c0,0,0,0,0,0v98.8
		C160.4,212.8,160.1,213.1,159.7,213.1z"></path><path class="st0" d="M198.1,121.5h-29.5c-0.4,0-0.7-0.3-0.7-0.7c0-0.4,0.3-0.7,0.7-0.7H198c0.4,0,0.7,0.3,0.7,0.7
		C198.7,121.2,198.4,121.5,198.1,121.5L198.1,121.5z"></path><path class="st1" d="M214.9,121.5h-9.6c-0.4,0-0.7-0.3-0.7-0.7c0-0.4,0.3-0.7,0.7-0.7h9.6c0.4,0,0.7,0.3,0.7,0.7
		C215.6,121.2,215.3,121.5,214.9,121.5z"></path><path class="st1" d="M241,121.5h-20.3c-0.4,0-0.7-0.3-0.7-0.7c0-0.4,0.3-0.7,0.7-0.7H241c0.4,0,0.7,0.3,0.7,0.7
		C241.7,121.2,241.4,121.5,241,121.5L241,121.5z"></path><path class="st0" d="M188.7,130.4h-20.1c-0.4,0-0.7-0.3-0.7-0.7c0-0.4,0.3-0.7,0.7-0.7c0,0,0,0,0,0h20.1c0.4,0,0.7,0.3,0.7,0.7
		C189.4,130.1,189,130.4,188.7,130.4z"></path><path class="st1" d="M277.6,130.4h-82.9c-0.4,0-0.7-0.3-0.7-0.7c0-0.4,0.3-0.7,0.7-0.7c0,0,0,0,0,0h82.9c0.4,0,0.7,0.3,0.7,0.7
		S278,130.4,277.6,130.4C277.6,130.4,277.6,130.4,277.6,130.4z"></path><path class="st0" d="M324.4,130.4H284c-0.4,0-0.7-0.3-0.7-0.7c0-0.4,0.3-0.7,0.7-0.7h40.4c0.4,0,0.7,0.3,0.7,0.7
		S324.8,130.4,324.4,130.4C324.4,130.4,324.4,130.4,324.4,130.4L324.4,130.4z"></path><path class="st0" d="M241,138.8h-72.4c-0.4,0-0.7-0.3-0.7-0.7c0-0.4,0.3-0.7,0.7-0.7H241c0.4,0,0.7,0.3,0.7,0.7
		C241.7,138.5,241.4,138.8,241,138.8C241,138.8,241,138.8,241,138.8z"></path><path class="st1" d="M272.2,138.8h-24.9c-0.4,0-0.7-0.3-0.7-0.7c0-0.4,0.3-0.7,0.7-0.7h24.9c0.4,0,0.7,0.3,0.7,0.7
		C272.9,138.5,272.5,138.8,272.2,138.8z"></path><path class="st0" d="M178.6,154.1h-10c-0.4,0-0.7-0.3-0.7-0.7c0-0.4,0.3-0.7,0.7-0.7h10c0.4,0,0.7,0.3,0.7,0.7
		C179.3,153.8,179,154.1,178.6,154.1z"></path><path class="st1" d="M210.1,154.1h-25.4c-0.4,0-0.7-0.3-0.7-0.7c0-0.4,0.3-0.7,0.7-0.7h25.4c0.4,0,0.7,0.3,0.7,0.7
		C210.8,153.8,210.5,154.1,210.1,154.1C210.1,154.1,210.1,154.1,210.1,154.1L210.1,154.1z"></path><path class="st0" d="M190,162h-21.4c-0.4,0-0.7-0.3-0.7-0.7c0-0.4,0.3-0.7,0.7-0.7H190c0.4,0,0.7,0.3,0.7,0.7
		C190.7,161.7,190.4,162,190,162z"></path><path class="st1" d="M236.2,162h-41.4c-0.4,0-0.7-0.3-0.7-0.7c0-0.4,0.3-0.7,0.7-0.7c0,0,0,0,0,0h41.4c0.4,0,0.7,0.3,0.7,0.7
		C236.9,161.7,236.6,162,236.2,162z"></path><path class="st0" d="M264.5,162h-22.4c-0.4,0-0.7-0.3-0.7-0.7c0-0.4,0.3-0.7,0.7-0.7c0,0,0,0,0,0h22.4c0.4,0,0.7,0.3,0.7,0.7
		S264.8,162,264.5,162C264.5,162,264.5,162,264.5,162z"></path><path class="st0" d="M199,170.4h-30.4c-0.4,0-0.7-0.3-0.7-0.7c0-0.4,0.3-0.7,0.7-0.7H199c0.4,0,0.7,0.3,0.7,0.7
		C199.7,170.1,199.4,170.4,199,170.4z"></path><path class="st1" d="M256,170.4h-50.7c-0.4,0-0.7-0.3-0.7-0.7c0-0.4,0.3-0.7,0.7-0.7H256c0.4,0,0.7,0.3,0.7,0.7
		S256.4,170.4,256,170.4C256,170.4,256,170.4,256,170.4z"></path><path class="st0" d="M304.2,170.4h-40.9c-0.4,0-0.7-0.3-0.7-0.7s0.3-0.7,0.7-0.7c0,0,0,0,0,0h40.9c0.4,0,0.7,0.3,0.7,0.7
		C304.9,170.1,304.6,170.4,304.2,170.4z"></path><path class="st0" d="M199,185.5h-30.4c-0.4,0-0.7-0.3-0.7-0.7c0-0.4,0.3-0.7,0.7-0.7H199c0.4,0,0.7,0.3,0.7,0.7
		C199.7,185.1,199.4,185.5,199,185.5z"></path><path class="st1" d="M215.5,185.5h-10.7c-0.4,0-0.7-0.3-0.7-0.7c0-0.4,0.3-0.7,0.7-0.7h10.7c0.4,0,0.7,0.3,0.7,0.7
		C216.2,185.1,215.9,185.5,215.5,185.5z"></path><path class="st1" d="M242.1,185.5h-21.4c-0.4,0-0.7-0.3-0.7-0.7c0-0.4,0.3-0.7,0.7-0.7h21.4c0.4,0,0.7,0.3,0.7,0.7
		C242.8,185.1,242.4,185.5,242.1,185.5C242.1,185.5,242.1,185.5,242.1,185.5z"></path><path class="st0" d="M188.7,193.3h-20.1c-0.4,0-0.7-0.3-0.7-0.7c0-0.4,0.3-0.7,0.7-0.7c0,0,0,0,0,0h20.1c0.4,0,0.7,0.3,0.7,0.7
		C189.4,193,189,193.3,188.7,193.3z"></path><path class="st1" d="M277.6,193.3h-83.7c-0.4,0-0.7-0.3-0.7-0.7c0-0.4,0.3-0.7,0.7-0.7c0,0,0,0,0,0h83.7c0.4,0,0.7,0.3,0.7,0.7
		S278,193.3,277.6,193.3C277.6,193.3,277.6,193.3,277.6,193.3z"></path><path class="st1" d="M327,193.3h-43c-0.4,0-0.7-0.3-0.7-0.7c0-0.4,0.3-0.7,0.7-0.7h43c0.4,0,0.7,0.3,0.7,0.7
		C327.7,193,327.4,193.3,327,193.3z"></path><path class="st0" d="M241,202.1h-74c-0.4,0-0.7-0.3-0.7-0.7c0-0.4,0.3-0.7,0.7-0.7c0,0,0,0,0,0h74c0.4,0,0.7,0.3,0.7,0.7
		C241.7,201.8,241.4,202.1,241,202.1C241,202.1,241,202.1,241,202.1z"></path><path class="st1" d="M270,202.1h-22.7c-0.4,0-0.7-0.3-0.7-0.7c0-0.4,0.3-0.7,0.7-0.7H270c0.4,0,0.7,0.3,0.7,0.7
		S270.4,202.1,270,202.1C270,202.1,270,202.1,270,202.1z"></path><circle class="st0" cx="150.9" cy="121.4" r="2.3"></circle><circle class="st0" cx="150.9" cy="129.7" r="2.3"></circle><circle class="st0" cx="150.9" cy="138" r="2.3"></circle><circle class="st0" cx="150.9" cy="153.6" r="2.3"></circle><circle class="st0" cx="150.9" cy="161.9" r="2.3"></circle><circle class="st0" cx="150.9" cy="170.2" r="2.3"></circle><circle class="st0" cx="150.9" cy="184.8" r="2.3"></circle><circle class="st0" cx="150.9" cy="193.1" r="2.3"></circle><circle class="st0" cx="150.9" cy="201.4" r="2.3"></circle></g><g id="hands"><path class="st0" d="M148.8,368h47.9c1.3-3.1,2.8-6.2,4.6-9.1c7.6-10.8,18.1-17.5,23.8-32.7s7.6-27.3,3.2-29.5s-9.8,15.5-15.6,20
		c0,0-4.3-21.4-0.9-30.9s10.6-16.6,9.6-22.4s-3.6-4.2-7.9-0.6c-2.2,1.9-5.9,8-5.9,8c0.4-3.1,1.4-6.1,3.1-8.8
		c4.3-6.4-5.9-9.3-13.5,2.1c0,0,3-11.8-2.8-8.3s-11.6,16.9-11.6,16.9s3.2-17.8-4.1-13c-7.3,4.8-10,27.6-9.1,37.8s3.1,33.8-3.4,42.2
		C164.1,342.6,157.2,354,148.8,368z"></path><path class="st1" d="M196.6,368.6h-47.9c-0.3,0-0.5-0.1-0.6-0.4c-0.1-0.2-0.1-0.5,0-0.7c9.7-16.2,15.6-25.7,17.5-28.2
		c6.4-8.4,4.1-32.6,3.2-41.7c-1-10.7,1.8-33.5,9.4-38.4c1.6-1,2.9-1.2,3.9-0.5c2.1,1.4,2.1,6.2,1.8,9.9c2.2-4.3,6.1-11,10-13.4
		c1.4-0.9,2.6-1,3.4-0.4c1.4,1,1.3,4,1,6.4c3.7-4.3,7.6-5.8,10.2-5.6c1.4,0,2.7,0.8,3.4,2c0.6,1.3,0.4,3-0.8,4.7
		c-1,1.5-1.7,3.1-2.2,4.9c1.1-1.8,2.5-3.5,4-5c2.9-2.5,5-3.9,6.6-3.2c1.2,0.4,1.9,1.8,2.4,4.3c0.6,3.6-1.7,7.6-4.4,12.3
		c-2,3.3-3.8,6.8-5.2,10.4c-2.9,7.9-0.2,24.7,0.6,29.3c2.1-2.1,4.1-5.9,6.1-9.5c3.3-6.1,6.2-11.3,9.3-9.7c6.5,3.3,0.2,22.3-2.8,30.4
		c-3.8,10.1-9.7,16.5-15.4,22.7c-3.1,3.2-5.9,6.6-8.5,10.1c-1.8,2.8-3.3,5.8-4.6,8.9C197.2,368.5,196.9,368.6,196.6,368.6z
		 M150,367.2h46.2c1.3-3,2.8-6,4.5-8.8c2.7-3.6,5.5-7,8.6-10.3c5.6-6.1,11.4-12.4,15.1-22.3c5.9-15.8,7.3-26.8,3.5-28.6
		c-1.9-1-4.9,4.4-7.4,9.2c-2.4,4.3-4.8,8.8-7.4,10.8c-0.2,0.1-0.5,0.2-0.7,0.1c-0.2-0.1-0.4-0.3-0.4-0.5c-0.2-0.9-4.3-21.7-0.8-31.3
		c1.5-3.7,3.3-7.3,5.4-10.7c2.6-4.4,4.8-8.2,4.3-11.3c-0.3-1.8-0.8-2.9-1.5-3.2c-1.1-0.4-3.2,1.2-5.2,3s-5.7,7.8-5.8,7.9
		c-0.2,0.3-0.6,0.5-0.9,0.3c-0.3-0.1-0.4-0.4-0.4-0.7c0.4-3.2,1.4-6.4,3.2-9.1c0.9-1.3,1.1-2.5,0.7-3.3c-0.5-0.8-1.4-1.3-2.3-1.2
		c-2.6-0.2-7,1.7-10.8,7.5c-0.2,0.3-0.6,0.4-0.9,0.2c-0.3-0.1-0.5-0.5-0.4-0.8c0.7-2.7,1.2-7.1,0.1-7.9c-0.4-0.3-1.3,0.1-1.8,0.4
		c-5.5,3.3-11.3,16.5-11.4,16.6c-0.1,0.3-0.5,0.5-0.8,0.4c-0.3-0.1-0.6-0.4-0.5-0.8c0.8-4.3,1.3-11.6-0.6-12.8
		c-0.5-0.3-1.3-0.2-2.4,0.5c-6.8,4.4-9.8,26.7-8.8,37.1c0.9,10.1,3.2,33.9-3.5,42.7C165,342.7,159.3,351.7,150,367.2z"></path><path class="st0" d="M282.4,284.1c-3-2.1-6.4,5.1-4.2,15.7s14.8,33,24.5,42.3c2.6,2.4,6.4,10.6,10.7,21.3h46.5
		c-11.4-21.6-21.2-40-22.1-41.2c-2.1-3-4.4-21.8-3.8-32.8c0.5-10.1-0.3-20.2-2.2-30.1c-1.5-6.6-3.9-8.7-7.1-8.7s-1.6,13-1.6,13l0,0
		c-1.5-7.8-6.6-16.7-11-17.6s1,15.5,1,15.5c-1.8-4.8-11.5-20.1-15.9-17.6c-1.4,0.8-5,1.8,0.7,12.3c5.7,10.5,5.5,16.1,5.5,16.1
		c-11.8-20.2-21-19.5-23.9-15.2s4.6,6.8,10.6,15.8s2.5,31.6,2.5,31.6C286.2,300.2,285.3,286.2,282.4,284.1z M323.1,263.8
		L323.1,263.8z M323.7,267L323.7,267L323.7,267z M323.6,266.7v-0.1V266.7z M323.5,266.2c0-0.2-0.1-0.5-0.1-0.8
		C323.4,265.7,323.5,266,323.5,266.2L323.5,266.2z M323.3,265c0-0.2-0.1-0.5-0.1-0.7L323.3,265z"></path><path class="st1" d="M359.9,364.1h-46.5c-0.3,0-0.5-0.2-0.6-0.4c-4.8-11.9-8.3-19-10.5-21.1c-9.5-9.1-22.5-31.5-24.8-42.7
		c-1.7-8.5,0-14.8,2.5-16.5c0.9-0.6,2-0.6,2.8,0.1c1.4,1,2.2,3.8,3.3,7.3c1.3,4.3,2.9,9.6,5.9,12.3c0.6-4.8,2.4-22.5-2.6-30
		c-2-3-4.4-5.7-7.1-8.1c-3.2-3.1-5.6-5.4-3.5-8.4c1.3-1.8,3.5-2.9,5.7-2.7c3.1,0.1,9.5,2.3,17.6,15.1c-1.1-4.4-2.8-8.6-5-12.6
		c-2.7-5-3.7-8.4-3-10.6c0.4-1.1,1.2-2,2.3-2.5l0.2-0.1c0.9-0.4,1.9-0.5,2.7-0.1c3.5,1.3,8,7.2,11,12.1c-0.9-3.8-1.5-8-0.2-9.5
		c0.5-0.5,1.2-0.7,1.8-0.6c3.7,0.7,7.5,6.1,9.8,12.1c0-2.8,0.3-5.6,1.3-6.8c0.4-0.4,0.9-0.7,1.5-0.7c4,0,6.4,2.9,7.8,9.3
		c2,10,2.7,20.2,2.2,30.4c-0.6,11.2,1.7,29.7,3.6,32.4c0.8,1.1,8,14.6,22.1,41.3c0.2,0.3,0,0.8-0.3,0.9
		C360,364,359.9,364.1,359.9,364.1L359.9,364.1z M313.9,362.7h44.9c-16.9-31.9-21-39.5-21.5-40.1c-2.3-3.2-4.5-22.1-3.9-33.2
		c0.5-10.1-0.3-20.1-2.2-30c-1.6-7.2-4.2-8.2-6.5-8.2c-0.2,0-0.3,0.1-0.4,0.2c-1.3,1.5-1,8.2-0.6,12l0,0c0,0,0,0,0,0.1l0,0l0,0l0,0
		c0,0.1,0,0.2,0,0.3c0.1,0.1,0.1,0.2,0.1,0.3l0.1,0.7c0,0.1,0,0.2,0,0.2c0,0.1,0.1,0.1,0.1,0.2l0.1,0.8c0,0.1,0,0.2,0.1,0.3l0,0
		h-0.1l0.1,0.1l0,0c0,0,0,0.1,0,0.1c0,0,0,0,0,0.1l0,0c0,0.3-0.3,0.6-0.6,0.6c-0.3,0.1-0.6-0.1-0.7-0.3h-0.1l0,0l0,0
		c0,0,0-0.1,0-0.1v-0.1l0,0l0,0c0,0,0-0.1,0-0.1l0,0c0-0.1,0-0.1,0-0.2c0-0.1,0-0.1-0.1-0.2l-0.1-0.6l0,0v-0.1l0,0
		c0-0.1,0-0.1,0-0.2c-0.1-0.1-0.1-0.2-0.1-0.3l-0.1-0.7c0-0.1,0-0.2,0-0.3c0-0.1-0.1-0.2-0.1-0.2l0,0l0,0l0,0v0c0,0,0-0.1,0-0.1
		c0,0,0,0,0-0.1l0,0c-1.5-8-6.6-16.3-10.5-17c-0.4-0.1-0.5,0.1-0.5,0.1c-1.3,1.4,0.6,9.3,2.3,14.5c0.1,0.4-0.1,0.8-0.4,0.9
		c-0.4,0.1-0.8-0.1-0.9-0.4c-1.6-4.1-8.8-15.6-13.3-17.2c-0.5-0.2-1.1-0.2-1.6,0l-0.3,0.1c-0.8,0.3-1.3,0.9-1.6,1.6
		c-0.5,1.8,0.4,5,2.9,9.5c5.7,10.5,5.6,16.3,5.6,16.5c0,0.4-0.3,0.7-0.7,0.7c-0.2,0-0.5-0.1-0.6-0.3c-8.6-14.8-15.1-17.2-18.2-17.3
		c-1.8-0.2-3.5,0.6-4.5,2.1c-1.4,1.9,0,3.4,3.3,6.6c2.8,2.5,5.2,5.3,7.3,8.4c6,9.1,2.8,31.2,2.6,32.1c-0.1,0.4-0.4,0.6-0.8,0.6
		c-0.1,0-0.2,0-0.3-0.1c-4-2.7-5.9-8.8-7.4-13.8c-0.9-3-1.8-5.9-2.8-6.6c-0.4-0.3-0.9-0.3-1.2,0c-1.8,1.1-3.6,6.7-1.9,15
		c2.2,10.8,15.1,33.1,24.4,42C305.5,343.9,309,350.8,313.9,362.7L313.9,362.7z"></path><path class="st3" d="M206.7,363.4c-1.1,0-52.4-17.4-52.4-17.4s-23.3,42.1-30.4,55.3l67.5,10.8L206.7,363.4z"></path><polygon class="st3" points="354,343 300,353.1 314.6,405.3 383.1,400.1 	"></polygon></g></svg>